<svg xmlns="http://www.w3.org/2000/svg" width="336" height="190" fill="none" viewBox="0 0 336 190"><g clip-path="url(#a)"><mask id="b" width="336" height="190" x="0" y="0" maskUnits="userSpaceOnUse" style="mask-type:luminance"><path fill="#fff" d="M336 .527H0v189h336z"/></mask><g mask="url(#b)"><mask id="c" width="331" height="190" x="0" y="0" maskUnits="userSpaceOnUse" style="mask-type:luminance"><path fill="#fff" d="M331 .527H0v189h331z"/></mask><g mask="url(#c)"><path fill="url(#d)" d="M325.5 20.027a1 1 0 0 0 0-2zm-52.167 75.5a5.333 5.333 0 1 0-10.665-.001 5.333 5.333 0 0 0 10.665.001M284 20.027a1 1 0 0 0 0-2zm38.536-2a1 1 0 1 0 0 2zm-5.929 2a1 1 0 0 0 0-2zm-5.928-2a1 1 0 1 0 0 2zm-5.929 2a1 1 0 0 0 0-2zm-5.929-2a1 1 0 0 0 0 2zm-5.928 2a1 1 0 0 0 0-2zm-5.929-2a1 1 0 0 0 0 2zm-6.281.324a1 1 0 0 0 .388 1.962zm-5.017 4.202a1 1 0 0 0-1.112-1.662zm-5.802 3.028a1 1 0 0 0 1.662 1.113zm-.578 6.518a1 1 0 0 0-1.962-.388zM267 38.052a1 1 0 0 0 2 0zm2 6.05a1 1 0 0 0-2 0zm-2 6.05a1 1 0 0 0 2 0zm2 6.05a1 1 0 0 0-2 0zm-2 6.05a1 1 0 0 0 2 0zm2 6.05a1 1 0 0 0-2 0zm-2 6.05a1 1 0 0 0 2 0zm2 6.05a1 1 0 0 0-2 0zm-2 6.05a1 1 0 0 0 2 0zm2 6.05a1 1 0 0 0-2 0zm56.5-74.475h-2.964v2h2.964zm-8.893 0h-5.928v2h5.928zm-11.857 0h-5.929v2h5.929zm-11.857 0h-5.929v2h5.929zm-8.893 0c-1.134 0-2.243.111-3.317.324l.388 1.962a15 15 0 0 1 2.929-.286zm-9.446 2.864a17.1 17.1 0 0 0-4.69 4.69l1.662 1.113a15.1 15.1 0 0 1 4.14-4.14zm-7.23 10.82a17 17 0 0 0-.324 3.316h2c0-1.003.098-1.982.286-2.928zM267 35.027v3.025h2v-3.025zm0 9.075v6.05h2v-6.05zm0 12.1v6.05h2v-6.05zm0 12.1v6.05h2v-6.05zm0 12.1v6.05h2v-6.05zm0 12.1v3.025h2v-3.025z"/><path fill="url(#e)" d="M169 108.527a1 1 0 0 0-2 0zm0 41.5a1 1 0 0 0-2 0zm-2-38.536a1 1 0 0 0 2 0zm2 5.929a1 1 0 1 0-2 0zm-2 5.928a1 1 0 1 0 2 0zm2 5.929a1 1 0 0 0-2 0zm-2 5.928a1 1 0 1 0 2 0zm2 5.929a1 1 0 0 0-2 0zm-2 5.929a1 1 0 0 0 2 0zm.324 6.281a1 1 0 1 0 1.962-.389zm4.202 5.016a1 1 0 0 0-1.662 1.113zm3.028 5.803a1 1 0 1 0 1.112-1.662zm6.517.578a1 1 0 0 0-.388 1.962zm5.929 2.286a1 1 0 0 0 0-2zm6-2a1 1 0 0 0 0 2zm6 2a1 1 0 0 0 0-2zm6-2a1 1 0 0 0 0 2zm6 2a1 1 0 0 0 0-2zm6-2a1 1 0 0 0 0 2zm6 2a1 1 0 0 0 0-2zm6-2a1 1 0 0 0 0 2zm6 2a1 1 0 0 0 0-2zm6-2a1 1 0 0 0 0 2zm6 2a1 1 0 0 0 0-2zm6-2a1 1 0 0 0 0 2zm6 2a1 1 0 0 0 0-2zm6-2a1 1 0 0 0 0 2zm6 2a1 1 0 0 0 0-2zm6-2a1 1 0 0 0 0 2zm6 2a1 1 0 0 0 0-2zm6-2a1 1 0 0 0 0 2zm6 2a1 1 0 0 0 0-2zm6-2a1 1 0 0 0 0 2zm6 2a1 1 0 0 0 0-2zm6-2a1 1 0 0 0 0 2zm6 2a1 1 0 0 0 0-2zm6-2a1 1 0 0 0 0 2zm6 2a1 1 0 0 0 0-2zm6-2a1 1 0 0 0 0 2zm6 2a1 1 0 0 0 0-2zm6-2a1 1 0 0 0 0 2zm6 2a1 1 0 0 0 0-2zm-188-58.5v2.964h2v-2.964zm0 8.893v5.928h2v-5.928zm0 11.857v5.928h2v-5.928zm0 11.857v5.929h2v-5.929zm0 8.893c0 1.134.111 2.243.324 3.317l1.962-.389a15 15 0 0 1-.286-2.928zm2.864 9.446a17.1 17.1 0 0 0 4.69 4.69l1.112-1.662a15.1 15.1 0 0 1-4.14-4.141zm10.819 7.23c1.074.213 2.183.324 3.317.324v-2c-1.003 0-1.982-.098-2.929-.286zm3.317.324h3v-2h-3zm9 0h6v-2h-6zm12 0h6v-2h-6zm12 0h6v-2h-6zm12 0h6v-2h-6zm12 0h6v-2h-6zm12 0h6v-2h-6zm12 0h6v-2h-6zm12 0h6v-2h-6zm12 0h6v-2h-6zm12 0h6v-2h-6zm12 0h6v-2h-6zm12 0h6v-2h-6zm12 0h6v-2h-6zm12 0h6v-2h-6z"/><path fill="#e5e5e5" d="M178 100.862a5.333 5.333 0 0 0 5.333-5.333 5.333 5.333 0 1 0-10.666 0 5.333 5.333 0 0 0 5.333 5.333m3-4.333a1 1 0 0 0 0-2zm6-2a1 1 0 0 0 0 2zm6 2a1 1 0 0 0 0-2zm6-2a1 1 0 0 0 0 2zm6 2a1 1 0 0 0 0-2zm6-2a1 1 0 0 0 0 2zm6 2a1 1 0 0 0 0-2zm6-2a1 1 0 0 0 0 2zm6 2a1 1 0 0 0 0-2zm6-2a1 1 0 0 0 0 2zm6 2a1 1 0 0 0 0-2zm6-2a1 1 0 0 0 0 2zm6 2a1 1 0 0 0 0-2zm6-2a1 1 0 0 0 0 2zm6 2a1 1 0 0 0 0-2zm6-2a1 1 0 0 0 0 2zm6 2a1 1 0 0 0 0-2zm6-2a1 1 0 0 0 0 2zm6 2a1 1 0 0 0 0-2zm6-2a1 1 0 0 0 0 2zm6 2a1 1 0 0 0 0-2zm6-2a1 1 0 0 0 0 2zm6 2a1 1 0 0 0 0-2zm6-2a1 1 0 0 0 0 2zm6 2a1 1 0 0 0 0-2zm6-2a1 1 0 0 0 0 2zm6 2a1 1 0 0 0 0-2zm6-2a1 1 0 0 0 0 2zm6 2a1 1 0 0 0 0-2zm6-2a1 1 0 0 0 0 2zm6 2a1 1 0 0 0 0-2zm6-2a1 1 0 0 0 0 2zm6 2a1 1 0 0 0 0-2zm6-2a1 1 0 0 0 0 2zm6 2a1 1 0 0 0 0-2zm6-2a1 1 0 0 0 0 2zm6 2a1 1 0 0 0 0-2zm6-2a1 1 0 0 0 0 2zm6 2a1 1 0 0 0 0-2zm-231 0h3v-2h-3zm9 0h6v-2h-6zm12 0h6v-2h-6zm12 0h6v-2h-6zm12 0h6v-2h-6zm12 0h6v-2h-6zm12 0h6v-2h-6zm12 0h6v-2h-6zm12 0h6v-2h-6zm12 0h6v-2h-6zm12 0h6v-2h-6zm12 0h6v-2h-6zm12 0h6v-2h-6zm12 0h6v-2h-6zm12 0h6v-2h-6zm12 0h6v-2h-6zm12 0h6v-2h-6zm12 0h6v-2h-6zm12 0h6v-2h-6zm12 0h6v-2h-6z"/><mask id="f" width="51" height="52" x="143" y="69" maskUnits="userSpaceOnUse" style="mask-type:luminance"><path fill="#fff" d="M193.523 69.527H143v50.524h50.523z"/></mask><g mask="url(#f)"><path fill="url(#g)" d="M193.177 95.089c0-13.856-11.233-25.089-25.089-25.089S143 81.233 143 95.088s11.232 25.089 25.088 25.089 25.089-11.233 25.089-25.089"/></g><path fill="#e5e5e5" d="M269 96.027a1 1 0 0 0-2 0zm4.333 107.5a5.33 5.33 0 0 0-5.333-5.333 5.333 5.333 0 1 0 5.333 5.333M269 200.541a1 1 0 1 0-2 0zm-2-5.972a1 1 0 0 0 2 0zm2-5.973a1 1 0 0 0-2 0zm-2-5.972a1 1 0 0 0 2 0zm2-5.972a1 1 0 0 0-2 0zm-2-5.972a1 1 0 0 0 2 0zm2-5.973a1 1 0 0 0-2 0zm-2-5.972a1 1 0 0 0 2 0zm2-5.972a1 1 0 0 0-2 0zm-2-5.972a1 1 0 0 0 2 0zm2-5.972a1 1 0 1 0-2 0zm-2-5.973a1 1 0 1 0 2 0zm2-5.972a1 1 0 0 0-2 0zm-2-5.972a1 1 0 0 0 2 0zm2-5.972a1 1 0 1 0-2 0zm-2-5.973a1 1 0 1 0 2 0zm2-5.972a1 1 0 0 0-2 0zm-2-5.972a1 1 0 0 0 2 0zm2 104.514v-2.986h-2v2.986zm0-8.958v-5.973h-2v5.973zm0-11.945v-5.972h-2v5.972zm0-11.944v-5.973h-2v5.973zm0-11.945v-5.972h-2v5.972zm0-11.944v-5.972h-2v5.972zm0-11.945v-5.972h-2v5.972zm0-11.944v-5.972h-2v5.972zm0-11.945v-5.972h-2v5.972zm0-11.944v-2.986h-2v2.986z"/><path fill="url(#h)" d="M116.333 208.029a5.33 5.33 0 0 0-5.333-5.333 5.333 5.333 0 1 0 5.333 5.333m-4.333-3.03a1 1 0 0 0-2 0zm-2-6.06a1 1 0 0 0 2 0zm2-6.06a1 1 0 0 0-2 0zm-2-6.06a1 1 0 0 0 2 0zm2-6.06a1 1 0 0 0-2 0zm-2-6.06a1 1 0 0 0 2 0zm2-6.06a1 1 0 0 0-2 0zm-2-6.06a1 1 0 0 0 2 0zm2-6.06a1 1 0 0 0-2 0zm-2-6.06a1 1 0 0 0 2 0zm2-6.06a1 1 0 0 0-2 0zm-2-6.06a1 1 0 0 0 2 0zm2-6.06a1 1 0 0 0-2 0zm-2-6.06a1 1 0 0 0 2 0zm2-6.06a1 1 0 0 0-2 0zm-2-6.06a1 1 0 0 0 2 0zm2-6.06a1 1 0 0 0-2 0zm-2-6.06a1 1 0 0 0 2 0zm2-6.06a1 1 0 0 0-2 0zm-2-6.06a1 1 0 0 0 2 0zm2-6.06a1 1 0 0 0-2 0zm-2-6.06a1 1 0 0 0 2 0zm2-6.06a1 1 0 0 0-2 0zm-2-6.06a1 1 0 0 0 2 0zm2-6.06a1 1 0 0 0-2 0zm0 148.47v-3.03h-2v3.03zm0-9.09v-6.06h-2v6.06zm0-12.12v-6.06h-2v6.06zm0-12.12v-6.06h-2v6.06zm0-12.12v-6.06h-2v6.06zm0-12.12v-6.06h-2v6.06zm0-12.12v-6.06h-2v6.06zm0-12.12v-6.06h-2v6.06zm0-12.12v-6.06h-2v6.06zm0-12.12v-6.06h-2v6.06zm0-12.12v-6.06h-2v6.06zm0-12.12v-6.06h-2v6.06zm0-12.12v-6.06h-2v6.06z"/><path fill="url(#i)" d="M110 51.029a1 1 0 0 0 2 0zm-4.333-57.5a5.333 5.333 0 1 0 10.666 0 5.333 5.333 0 1 0-10.666 0M110-3.596a1 1 0 0 0 2 0zm2 5.75a1 1 0 0 0-2 0zm-2 5.75a1 1 0 0 0 2 0zm2 5.75a1 1 0 0 0-2 0zm-2 5.75a1 1 0 0 0 2 0zm2 5.75a1 1 0 0 0-2 0zm-2 5.75a1 1 0 0 0 2 0zm2 5.75a1 1 0 0 0-2 0zm-2 5.75a1 1 0 0 0 2 0zm2 5.75a1 1 0 0 0-2 0zm-2-54.625v2.875h2v-2.875zm0 8.625v5.75h2v-5.75zm0 11.5v5.75h2v-5.75zm0 11.5v5.75h2v-5.75zm0 11.5v5.75h2v-5.75zm0 11.5v2.875h2v-2.875z"/><path fill="url(#j)" d="M-8 100.862a5.333 5.333 0 1 0 0-10.667 5.333 5.333 0 0 0 0 10.667m3.03-4.333a1 1 0 0 0 0-2zm6.06-2a1 1 0 1 0 0 2zm6.06 2a1 1 0 0 0 0-2zm6.06-2a1 1 0 1 0 0 2zm6.06 2a1 1 0 0 0 0-2zm6.06-2a1 1 0 1 0 0 2zm6.06 2a1 1 0 0 0 0-2zm6.06-2a1 1 0 1 0 0 2zm6.06 2a1 1 0 0 0 0-2zm6.06-2a1 1 0 1 0 0 2zm6.06 2a1 1 0 0 0 0-2zm6.06-2a1 1 0 1 0 0 2zm6.06 2a1 1 0 0 0 0-2zm6.06-2a1 1 0 1 0 0 2zm6.06 2a1 1 0 0 0 0-2zm6.06-2a1 1 0 1 0 0 2zm6.06 2a1 1 0 0 0 0-2zm6.06-2a1 1 0 1 0 0 2zm6.06 2a1 1 0 0 0 0-2zm6.06-2a1 1 0 0 0 0 2zm6.06 2a1 1 0 0 0 0-2zm6.06-2a1 1 0 0 0 0 2zm6.06 2a1 1 0 0 0 0-2zm6.06-2a1 1 0 0 0 0 2zm6.06 2a1 1 0 0 0 0-2zm-148.47 0h3.03v-2H-8zm9.09 0h6.06v-2H1.09zm12.12 0h6.06v-2h-6.06zm12.12 0h6.06v-2h-6.06zm12.12 0h6.06v-2h-6.06zm12.12 0h6.06v-2h-6.06zm12.12 0h6.06v-2h-6.06zm12.12 0h6.06v-2h-6.06zm12.12 0h6.06v-2h-6.06zm12.12 0h6.06v-2h-6.06zm12.12 0h6.06v-2h-6.06zm12.12 0h6.06v-2h-6.06zm12.12 0h6.06v-2h-6.06z"/><path fill="#fff" stroke="#8e51ff" stroke-width="2" d="M263 95.527a5 5 0 1 1 10 0 5 5 0 0 1-10 0ZM263 164.527a5 5 0 1 1 10.001.001 5 5 0 0 1-10.001-.001Z"/><path fill="url(#k)" d="M111 55.862a5.333 5.333 0 0 1-5.333-5.334 5.333 5.333 0 1 1 10.666 0A5.333 5.333 0 0 1 111 55.862m-2.958-4.334a1 1 0 1 1 0-2zm-5.917-2a1 1 0 0 1 0 2zm-5.917 2a1 1 0 0 1 0-2zm-5.916-2a1 1 0 1 1 0 2zm-5.917 2a1 1 0 0 1 0-2zm-5.917-2a1 1 0 1 1 0 2zm-5.916 2a1 1 0 0 1 0-2zm-5.917-2a1 1 0 1 1 0 2zm-5.917 2a1 1 0 0 1 0-2zm-5.916-2a1 1 0 0 1 0 2zm-5.917 2a1 1 0 0 1 0-2zm-5.917-2a1 1 0 1 1 0 2zm-6.275 1.677a1 1 0 0 1 .389-1.962zm-5.017-4.203a1 1 0 0 1-1.112 1.662zm-5.802-3.028a1 1 0 1 1 1.662-1.112zm-.579-6.517a1 1 0 1 1-1.961.388zM23 31.593a1 1 0 1 1 2 0zm2-5.87a1 1 0 1 1-2 0zm-2-5.869a1 1 0 0 1 2 0zm2-5.87a1 1 0 1 1-2 0zm-2-5.869a1 1 0 1 1 2 0zm2-5.87a1 1 0 1 1-2 0zm-2-5.869a1 1 0 1 1 2 0zm2-5.87a1 1 0 1 1-2 0zm-2-5.87a1 1 0 1 1 2 0zm2-5.869a1 1 0 1 1-2 0zm-2-5.87a1 1 0 1 1 2 0zm2-5.869a1 1 0 0 1-2 0zm-2-5.87a1 1 0 1 1 2 0zm2-5.869a1 1 0 1 1-2 0zm-2-5.87a1 1 0 1 1 2 0zm2-5.87a1 1 0 1 1-2 0zm-2-5.869a1 1 0 1 1 2 0zm2-5.87a1 1 0 0 1-2 0zm-2-5.869a1 1 0 1 1 2 0zm2-5.87a1 1 0 1 1-2 0zm-2-5.869a1 1 0 0 1 2 0zm2-5.87a1 1 0 1 1-2 0zm-2-5.87a1 1 0 1 1 2 0zm88 149.066h-2.958v-2H111zm-8.875 0h-5.917v-2h5.917zm-11.833 0h-5.917v-2h5.917zm-11.834 0h-5.916v-2h5.916zm-11.833 0h-5.917v-2h5.917zm-11.833 0h-5.917v-2h5.917zm-11.834 0H40v-2h2.958zm-2.958 0c-1.134 0-2.243-.111-3.317-.323l.389-1.962c.946.187 1.925.285 2.928.285zm-9.446-2.864a17.1 17.1 0 0 1-4.69-4.69l1.662-1.112a15.1 15.1 0 0 0 4.14 4.14zm-7.23-10.82A17 17 0 0 1 23 34.529h2c0 1.003.098 1.982.285 2.929zM23 34.529v-2.935h2v2.935zm0-8.804v-5.87h2v5.87zm0-11.74V8.116h2v5.87zm0-11.738v-5.87h2v5.87zm0-11.74v-5.87h2v5.87zm0-11.739v-5.87h2v5.87zm0-11.739v-5.87h2v5.87zm0-11.739v-5.87h2v5.87zm0-11.74v-5.869h2v5.87zm0-11.738v-5.87h2v5.87zm0-11.74v-5.869h2v5.87zm0-11.739v-5.87h2v5.87z"/><path fill="#fff" stroke="#8e51ff" stroke-width="2" d="M116 50.527a5 5 0 1 0-10 0 5 5 0 0 0 10 0ZM116 95.527a5 5 0 1 0-10 0 5 5 0 0 0 10 0Z"/></g></g><path fill="#fff" d="M178.188 84.695q-.017-.021-.039-.042l-.009-.01q-.015-.015-.03-.032c-5.443-5.839-14.591-6.18-20.456-.752s-6.234 14.573-.836 20.453l.024.027.012.015q.02.021.039.042c5.443 5.841 14.591 6.183 20.456.755 5.868-5.428 6.237-14.573.839-20.456m1.399 10.28a12.1 12.1 0 0 1-1.687 5.719q-.078.128-.156.257a11.6 11.6 0 0 1-1.075 1.45q-.098.114-.201.228a11.958 11.958 0 0 1-2.171 1.89 12 12 0 0 1-1.16.698q-.135.069-.266.138-.607.3-1.249.533a12 12 0 0 1-4.583.707c-1.57-.06-3.089-.42-4.515-1.064q-.256-.116-.509-.242l-.09-.045q-.045-.022-.09-.048l-.09-.048-.176-.099a1 1 0 0 1-.087-.051q-.131-.076-.258-.153l-.087-.054-.086-.053q-.044-.027-.084-.054l-.084-.054a1 1 0 0 1-.084-.057q-.042-.026-.084-.057l-.084-.057q-.04-.029-.084-.057l-.081-.06-.054-.039q-.039-.03-.083-.06-.054-.041-.108-.078l-.105-.081q-.05-.036-.096-.074l-.198-.159-.078-.066q-.035-.03-.071-.06-.082-.069-.159-.138-.04-.034-.075-.069-.04-.035-.075-.069-.049-.043-.093-.086-.046-.04-.087-.084-.014-.012-.024-.024l-.072-.069-.003-.003q-.042-.042-.086-.084l-.009-.009q-.042-.044-.084-.084l-.09-.093-.09-.093-.09-.095-.015-.018a1.95 1.95 0 0 1-.371-1.995 1.943 1.943 0 0 1 3.217-.642l.018.018.084.09.072.075.134.135.051.048q.05.049.099.093.037.037.075.069l.063.057q.045.041.09.078.039.034.078.065l.063.054q.086.073.176.141l.081.063.081.063.081.06q.042.03.084.06t.084.057q.044.028.084.057.003.001.006.003a6 6 0 0 0 .506.308l.099.054q.078.044.155.084l.054.027q.076.04.156.075.093.046.186.087.113.05.225.095.126.053.254.102l.171.063a8 8 0 0 0 1.591.387q.088.012.182.024l.09.009.183.018q.136.013.275.018.044.002.093.003.124.005.249.006h.249q.049 0 .098-.003l.099-.003q.099-.004.198-.012l.099-.006.198-.018a8 8 0 0 0 1.92-.441 8.15 8.15 0 0 0 2.785-1.698 8.2 8.2 0 0 0 1.909-2.648q.23-.513.389-1.043.123-.412.201-.838.019-.098.033-.195l.015-.099.027-.195.012-.099.009-.098a6 6 0 0 0 .033-.498l.003-.099v-.464a4.35 4.35 0 0 1-2.487-.716q.01.073.021.141l.009.06q.02.144.03.287 0 .032.006.063 0 .038.006.075l.006.126q.004.077.003.153v.135q0 .035-.003.075c0 .024 0 .044-.003.069q-.002.033-.003.068-.001.034-.003.07l-.009.137q0 .032-.006.069l-.009.09-.018.135a6 6 0 0 1-.254 1.072q-.04.118-.084.23-.044.115-.093.228l-.03.066-.03.066c-.021.042-.039.087-.063.129q-.014.03-.033.063l-.066.126-.069.126-.111.185q-.071.116-.149.228c-.042.063-.09.126-.135.186l-.09.113a3 3 0 0 1-.189.225l-.048.054-.051.054a3 3 0 0 1-.152.159l-.003.003-.108.105-.027.026-.027.027a3 3 0 0 1-.156.138q-.077.068-.159.132a5 5 0 0 1-.203.156l-.069.05q-.063.046-.126.088-.063.044-.126.084l-.129.077q-.063.04-.131.075-.028.016-.057.033l-.117.063q-.028.016-.06.03-.03.015-.06.03t-.06.03q-.075.037-.15.069-.077.03-.152.063a2 2 0 0 1-.123.048l-.123.045q-.031.013-.063.02-.031.012-.063.022a1 1 0 0 0-.063.021q-.053.019-.111.032-.007.002-.015.003l-.063.018-.122.033c-.063.015-.129.033-.192.045l-.129.027-.063.012-.063.012a1 1 0 0 0-.063.012l-.062.009a6 6 0 0 1-.249.033l-.069.006q-.382.035-.764.021-.034 0-.069-.003c-.09-.003-.179-.012-.269-.018a.3.3 0 0 1-.048-.006l-.078-.009q-.023-.003-.051-.006-.072-.008-.144-.021l-.063-.009q-.062-.01-.129-.024-.032-.006-.062-.012l-.126-.027q-.124-.028-.249-.06l-.069-.018q-.059-.017-.117-.032a7 7 0 0 1-.323-.108l-.114-.045q-.091-.035-.183-.075l-.06-.027-.06-.027-.119-.057-.06-.03q-.03-.014-.06-.03-.03-.014-.057-.03l-.057-.033a7 7 0 0 1-.512-.314q-.023-.018-.051-.036-.028-.021-.06-.042l-.108-.081-.054-.042q-.026-.02-.048-.039-.026-.023-.057-.045l-.051-.042-.051-.045-.062-.054q-.031-.026-.063-.057-.028-.024-.051-.047-.017-.016-.033-.034l-.054-.05-.108-.108c-.018-.018-.036-.04-.057-.057l-.06-.063-.018-.018a4.34 4.34 0 0 0-3.528-1.363 4.33 4.33 0 0 0-2.601 1.141q-.457.425-.766.935a11 11 0 0 1-.204-.524q-.078-.215-.147-.429-.065-.203-.12-.404-.058-.211-.111-.422-.035-.141-.065-.285l-.03-.144-.027-.132-.003-.02q-.014-.066-.024-.132-.014-.072-.024-.144l-.045-.288-.018-.12a.2.2 0 0 0-.006-.038l-.015-.123v-.012l-.015-.135-.027-.29-.009-.138v-.012q-.003-.046-.006-.093-.005-.066-.006-.132v-.024q-.001-.049-.003-.093l-.003-.093a10 10 0 0 1-.006-.296v-.279q0-.153.009-.305a12.1 12.1 0 0 1 1.686-5.719c.051-.087.105-.17.156-.258q.12-.188.249-.377.257-.373.536-.725.141-.177.291-.347.097-.114.2-.228.357-.392.749-.758a12 12 0 0 1 1.423-1.132q.373-.255.764-.48c.132-.074.26-.146.395-.218q.136-.071.267-.138.607-.3 1.249-.533c1.471-.53 3.013-.77 4.583-.707a12 12 0 0 1 5.024 1.303q.045.022.089.048.045.022.09.048l.09.048.177.099q.046.023.087.05.132.077.257.153.046.027.087.054l.087.054q.044.027.084.054.044.027.084.054.044.026.084.057.042.026.084.057l.084.057q.039.028.083.057.04.028.081.06.027.02.054.038.04.032.084.06l.108.078.105.081q.05.038.096.075l.197.159q.039.03.078.066l.072.06q.082.067.159.138.04.033.075.068.037.034.075.07c.033.03.063.056.092.086q.046.04.087.084.014.012.024.024l.072.069.003.003q.043.042.087.084l.009.009q.042.044.084.084l.09.093.09.092q.039.042.078.084l.009.012.015.018c.503.557.623 1.333.371 1.995a1.943 1.943 0 0 1-3.217.641l-.018-.018-.012-.015-.072-.075-.072-.075c-.045-.044-.087-.09-.135-.134q-.023-.024-.051-.048l-.099-.093a1 1 0 0 0-.074-.069l-.063-.057q-.045-.041-.09-.078l-.078-.066-.063-.054a4 4 0 0 0-.177-.14l-.081-.063-.08-.063-.081-.06q-.042-.03-.084-.06t-.084-.057l-.084-.057q-.003-.001-.006-.003a6 6 0 0 0-.338-.213q-.002 0-.003-.003a3 3 0 0 0-.165-.092l-.099-.054q-.078-.044-.156-.084l-.054-.027a3 3 0 0 0-.156-.075q-.092-.046-.185-.087a7 7 0 0 0-.225-.096q-.127-.053-.255-.102l-.17-.062a8 8 0 0 0-1.591-.387q-.09-.012-.183-.024l-.089-.009-.183-.018a4 4 0 0 0-.276-.018q-.044-.002-.093-.003c-.084-.003-.164-.006-.248-.006h-.249q-.05 0-.099.003l-.099.003q-.098.004-.197.012l-.099.006-.198.018a8.1 8.1 0 0 0-1.92.44 8.2 8.2 0 0 0-2.786 1.699 8.246 8.246 0 0 0-2.498 4.53q-.019.096-.033.194l-.015.099-.027.194q-.006.05-.012.1l-.009.098a6 6 0 0 0-.033.497q-.001.05-.003.1v.463a4.34 4.34 0 0 1 2.486.716q-.013-.072-.021-.14l-.009-.06a5 5 0 0 1-.029-.288q-.003-.03-.006-.063l-.006-.075-.006-.126q-.004-.075-.003-.152v-.135q0-.035.003-.075 0-.035.003-.069 0-.034.003-.069.001-.037.003-.069l.009-.137q0-.034.006-.07l.008-.09.018-.134q.028-.202.069-.398.022-.105.048-.204.058-.238.138-.47.04-.118.084-.231t.093-.228l.03-.066.03-.066c.021-.041.039-.083.063-.128q.014-.032.033-.063.031-.063.065-.126l.069-.126a6 6 0 0 1 .261-.413c.042-.063.09-.126.135-.186l.09-.114q.09-.113.188-.224l.048-.054.051-.054q.076-.082.153-.159l.003-.003c.036-.036.069-.069.108-.105l.027-.027.027-.027q.078-.07.156-.14.078-.069.158-.132.1-.08.204-.156l.069-.051q.063-.046.126-.087.063-.044.125-.084l.129-.078q.064-.039.132-.075c.018-.012.039-.02.057-.033l.117-.062q.03-.016.06-.03.03-.016.06-.03a1 1 0 0 0 .06-.03l.149-.07.153-.062q.06-.026.123-.048l.123-.045q.031-.01.063-.02.031-.012.063-.022.031-.01.062-.02.053-.02.111-.034.007-.001.015-.003l.063-.018q.064-.019.123-.033c.063-.015.129-.033.192-.045l.129-.027q.03-.006.062-.012l.063-.012a1 1 0 0 0 .063-.012l.063-.008q.125-.02.249-.034.035-.004.069-.005a5.4 5.4 0 0 1 1.228.017q.025.004.051.007.072.007.144.02l.062.01q.062.008.129.023c.021.003.042.01.063.012l.126.027q.124.029.249.06l.068.018q.058.019.117.033a7 7 0 0 1 .438.153l.182.075.06.027.06.027a4 4 0 0 1 .18.087q.03.014.06.03.03.014.057.03l.057.032q.26.144.512.315l.051.036.06.042.108.08a1 1 0 0 1 .053.043q.026.02.048.039l.057.045.051.041q.028.023.051.046l.063.053q.031.026.063.057l.051.048q.017.015.033.033l.054.051.108.108q.026.028.057.057.022.022.044.048l.033.036a4.347 4.347 0 0 0 6.129.221c.306-.281.56-.596.767-.934q.109.26.204.524c.051.144.102.285.147.431q.063.202.119.405.058.21.111.422.035.14.066.285l.03.144q.006.026.012.06.007.034.015.074.004.008.003.021.014.066.024.132.014.072.024.144l.045.287.018.12q0 .02.006.04l.015.122v.012l.015.135.027.29.009.138v.012q.003.044.006.093.005.066.006.132v.024q.001.049.003.093.001.044.003.092.005.15.006.297v.279c.003.092 0 .194-.006.296"/></g><defs><linearGradient id="d" x1="273.985" x2="331.524" y1="23.964" y2="9.98" gradientUnits="userSpaceOnUse"><stop offset=".013" stop-color="#e5e5e5"/><stop offset="1" stop-color="#fff" stop-opacity=".1"/></linearGradient><linearGradient id="e" x1="262.999" x2="360.999" y1="166.492" y2="164.408" gradientUnits="userSpaceOnUse"><stop offset=".013" stop-color="#e5e5e5"/><stop offset="1" stop-color="#fff" stop-opacity=".1"/></linearGradient><linearGradient id="g" x1="168.088" x2="168.088" y1="70" y2="120.177" gradientUnits="userSpaceOnUse"><stop stop-color="#8e51ff"/><stop offset="1" stop-color="#8e51ff"/></linearGradient><linearGradient id="h" x1="111" x2="111" y1="140.029" y2="260.029" gradientUnits="userSpaceOnUse"><stop stop-color="#e5e5e5"/><stop offset="1" stop-color="#fff" stop-opacity=".1"/></linearGradient><linearGradient id="i" x1="111" x2="111" y1="27.529" y2="-13.971" gradientUnits="userSpaceOnUse"><stop stop-color="#e5e5e5"/><stop offset="1" stop-color="#fff" stop-opacity=".1"/></linearGradient><linearGradient id="j" x1="67.75" x2="-60" y1="94.528" y2="95.528" gradientUnits="userSpaceOnUse"><stop stop-color="#e5e5e5"/><stop offset="1" stop-color="#fff" stop-opacity=".1"/></linearGradient><linearGradient id="k" x1="86.981" x2="4.512" y1="58.05" y2="-24.483" gradientUnits="userSpaceOnUse"><stop offset=".013" stop-color="#e5e5e5"/><stop offset="1" stop-color="#fff" stop-opacity=".1"/></linearGradient><clipPath id="a"><path fill="#fff" d="M0 0h336v190H0z"/></clipPath></defs></svg>
