<svg xmlns="http://www.w3.org/2000/svg" width="48" height="48" fill="none" viewBox="0 0 48 48"><path fill="#4a3cff" d="M4.002 24c0-9.428 0-14.142 2.929-17.071S14.574 4 24.002 4s14.142 0 17.071 2.929S44.002 14.572 44.002 24s0 14.142-2.929 17.071S33.43 44 24.002 44 9.86 44 6.931 41.071 4.002 33.428 4.002 24" opacity=".24"/><path fill="#4a3cff" d="M29.001 21.5a1.5 1.5 0 0 1 0-3h5a1.5 1.5 0 0 1 1.5 1.5v5a1.5 1.5 0 0 1-3 0v-1.379l-4.025 4.025a3.5 3.5 0 0 1-4.95 0l-3.171-3.171a.5.5 0 0 0-.708 0l-4.585 4.586a1.5 1.5 0 0 1-2.122-2.122l4.586-4.585a3.5 3.5 0 0 1 4.95 0l3.171 3.171a.5.5 0 0 0 .708 0L30.38 21.5z"/></svg>