<svg xmlns="http://www.w3.org/2000/svg" width="80" height="80" fill="none" viewBox="0 0 80 80"><path fill="#4a3cff" d="M28.074 68.727c5.852 3.071 8.778 4.607 11.925 4.607V40L8.793 23.576l-.136.223c-1.991 3.382-1.991 7.59-1.991 16.006v.39c0 8.416 0 12.624 1.991 16.006s5.578 5.264 12.75 9.028z"/><path fill="#4a3cff" d="m58.592 14.772-6.667-3.499C46.073 8.203 43.147 6.667 40 6.667s-6.074 1.535-11.926 4.606l-6.667 3.499c-7.012 3.68-10.597 5.56-12.614 8.803L40 40l31.206-16.425c-2.017-3.242-5.602-5.123-12.614-8.803m12.75 9.028-.135-.224L40 40v33.334c3.148 0 6.074-1.536 11.926-4.607l6.666-3.498c7.173-3.764 10.759-5.646 12.75-9.028s1.991-7.59 1.991-16.006v-.39c0-8.416 0-12.624-1.991-16.006" opacity=".24"/><path fill="#4a3cff" d="m21.077 14.946.331-.174 4.979-2.612 30.335 16.685 13.413-6.707c.459.52.858 1.068 1.207 1.662.499.846.873 1.745 1.153 2.748l-13.328 6.664v10.122a2.5 2.5 0 0 1-5 0v-7.622L42.5 41.546v31.468c-.856.213-1.67.32-2.5.32s-1.643-.107-2.5-.32V41.546L7.506 26.548A11.4 11.4 0 0 1 8.658 23.8c.35-.594.75-1.142 1.208-1.662L40 37.205l11.288-5.643z"/></svg>