<svg xmlns="http://www.w3.org/2000/svg" width="81" height="80" fill="none" viewBox="0 0 81 80"><path fill="#4a3cff" d="M10.903 23.905c2.813-2.812 6.86-3.6 13.601-3.82l5.001-.079Q31.461 20 33.665 20h13.333q2.204-.002 4.16.006l5 .08c6.742.22 10.789 1.007 13.602 3.82 3.905 3.905 3.905 10.19 3.905 22.76 0 12.572 0 18.857-3.906 22.762-3.905 3.905-10.19 3.905-22.76 3.905H33.664c-12.571 0-18.856 0-22.762-3.905s-3.905-10.19-3.905-22.761 0-18.856 3.905-22.762" opacity=".24"/><path fill="#4a3cff" d="M42.833 33.333a2.5 2.5 0 0 0-5 0v.035c-3.63.914-6.667 3.775-6.667 7.743 0 4.857 4.55 8.056 9.167 8.056 2.747 0 4.166 1.775 4.166 3.055s-1.419 3.056-4.166 3.056-4.167-1.776-4.167-3.056a2.5 2.5 0 1 0-5 0c0 3.968 3.037 6.83 6.667 7.744V60a2.5 2.5 0 1 0 5 0v-.034c3.629-.914 6.666-3.776 6.666-7.744 0-4.856-4.55-8.055-9.166-8.055-2.748 0-4.167-1.776-4.167-3.056s1.42-3.055 4.167-3.055 4.166 1.775 4.166 3.055a2.5 2.5 0 0 0 5 0c0-3.968-3.037-6.83-6.666-7.743zM40.507 4.167h-.347c-2.995 0-5.492 0-7.475.266-2.093.281-3.982.9-5.5 2.418s-2.137 3.408-2.419 5.5c-.19 1.422-.245 4.82-.26 7.734l5-.079c.016-2.822.064-5.86.216-6.988.206-1.538.564-2.197.998-2.631s1.093-.792 2.631-.999c1.61-.216 3.769-.221 6.982-.221s5.372.005 6.982.221c1.538.207 2.197.565 2.631.999.435.434.792 1.093.999 2.63.152 1.13.2 4.167.215 6.99l5 .078c-.015-2.913-.069-6.312-.26-7.733-.281-2.093-.9-3.982-2.418-5.5-1.518-1.519-3.408-2.138-5.5-2.419-1.983-.267-4.48-.266-7.475-.266"/></svg>