<svg xmlns="http://www.w3.org/2000/svg" width="81" height="80" fill="none" viewBox="0 0 81 80"><path fill="#4a3cff" d="M23.023 30.976c.976.977.976 2.548.976 5.69v20c0 3.143 0 4.715-.976 5.691-.977.976-2.548.976-5.69.976s-4.715 0-5.691-.976-.976-2.548-.976-5.69v-20c0-3.143 0-4.714.976-5.69C12.618 30 14.19 30 17.332 30s4.714 0 5.69.976" opacity=".24"/><path fill="#4a3cff" d="M69.69 7.643c.976.976.976 2.548.976 5.69v43.334c0 3.142 0 4.714-.976 5.69-.977.976-2.548.976-5.69.976s-4.715 0-5.691-.976-.976-2.548-.976-5.69V13.333c0-3.142 0-4.714.976-5.69s2.548-.976 5.69-.976 4.714 0 5.69.976"/><path fill="#4a3cff" d="M47.333 23.333c0-3.142 0-4.714-.976-5.69-.977-.976-2.548-.976-5.69-.976s-4.715 0-5.691.976S34 20.191 34 23.333v33.334c0 3.142 0 4.714.976 5.69s2.548.976 5.69.976 4.714 0 5.69-.976c.977-.976.977-2.548.977-5.69z" opacity=".5"/><path fill="#4a3cff" d="M70.666 70.833a2.5 2.5 0 0 1 0 5h-60a2.5 2.5 0 0 1 0-5z"/></svg>