<svg xmlns="http://www.w3.org/2000/svg" width="49" height="48" fill="none" viewBox="0 0 49 48"><path fill="#4a3cff" fill-rule="evenodd" d="M4.664 24c0-11.046 8.954-20 20-20s20 8.954 20 20-8.954 20-20 20-20-8.954-20-20m18.5-14a1.5 1.5 0 0 1 1.5-1.5c8.56 0 15.5 6.94 15.5 15.5s-6.94 15.5-15.5 15.5-15.5-6.94-15.5-15.5a1.5 1.5 0 0 1 3 0c0 6.904 5.597 12.5 12.5 12.5 6.904 0 12.5-5.596 12.5-12.5s-5.596-12.5-12.5-12.5a1.5 1.5 0 0 1-1.5-1.5m1.5 4.5a1.5 1.5 0 1 0 0 3 6.5 6.5 0 0 1 0 13 1.5 1.5 0 1 0 0 3 9.5 9.5 0 0 0 0-19" clip-rule="evenodd" opacity=".24"/><path fill="#4a3cff" d="M23.164 10a1.5 1.5 0 0 1 1.5-1.5c8.56 0 15.5 6.94 15.5 15.5s-6.94 15.5-15.5 15.5-15.5-6.94-15.5-15.5a1.5 1.5 0 0 1 3 0c0 6.904 5.597 12.5 12.5 12.5 6.904 0 12.5-5.596 12.5-12.5s-5.596-12.5-12.5-12.5a1.5 1.5 0 0 1-1.5-1.5"/><path fill="#4a3cff" d="M24.664 14.5a1.5 1.5 0 1 0 0 3 6.5 6.5 0 0 1 0 13 1.5 1.5 0 1 0 0 3 9.5 9.5 0 0 0 0-19"/></svg>