<svg xmlns="http://www.w3.org/2000/svg" width="49" height="48" fill="none" viewBox="0 0 49 48"><path fill="#4a3cff" d="M4.336 24c0-9.428 0-14.142 2.929-17.071S14.908 4 24.335 4c9.429 0 14.143 0 17.072 2.929S44.336 14.572 44.336 24s0 14.142-2.929 17.071S33.764 44 24.336 44s-14.142 0-17.071-2.929S4.335 33.428 4.335 24" opacity=".24"/><path fill="#4a3cff" d="M21.42 15.035a1.5 1.5 0 0 0-2.172-2.07l-4.628 4.86-1.2-1.26a1.5 1.5 0 0 0-2.172 2.07l2.286 2.4a1.5 1.5 0 0 0 2.172 0zm4.914 1.465a1.5 1.5 0 0 0 0 3h10a1.5 1.5 0 0 0 0-3zM21.42 29.035a1.5 1.5 0 0 0-2.172-2.07l-4.628 4.86-1.2-1.26a1.5 1.5 0 0 0-2.172 2.07l2.286 2.4a1.5 1.5 0 0 0 2.172 0zm4.914 1.465a1.5 1.5 0 0 0 0 3h10a1.5 1.5 0 0 0 0-3z"/></svg>