<svg xmlns="http://www.w3.org/2000/svg" width="48" height="48" fill="none" viewBox="0 0 48 48"><path fill="#4a3cff" d="M6.755 10.165C6 11.24 6 14.438 6 20.833v3.15c0 11.276 8.478 16.748 13.797 19.072 1.443.63 2.165.945 4.203.945s2.76-.315 4.203-.945C33.523 40.73 42 35.259 42 23.983v-3.15c0-6.395 0-9.592-.755-10.668S37.483 8.06 31.47 6.002l-1.145-.393C27.19 4.536 25.623 4 24 4s-3.19.536-6.325 1.61l-1.145.392c-6.013 2.058-9.02 3.087-9.775 4.163" opacity=".24"/><path fill="#4a3cff" d="M30.118 20.999a1.5 1.5 0 1 0-2.238-1.998l-6.024 6.747-1.738-1.947a1.5 1.5 0 1 0-2.238 1.998l2.857 3.2a1.5 1.5 0 0 0 2.238 0z"/></svg>