<svg xmlns="http://www.w3.org/2000/svg" width="294" height="295" fill="none" viewBox="0 0 294 295"><path fill="currentColor" d="M255.305 47.584c-.121-.152-.243-.273-.395-.425l-.091-.091c-.091-.121-.212-.212-.303-.334-55.169-59.177-147.897-62.638-207.347-7.621s-63.184 147.714-8.471 207.316c.091.091.152.182.243.273l.121.152c.122.152.274.273.395.425 55.169 59.207 147.897 62.669 207.347 7.652 59.48-55.017 63.215-147.715 8.501-207.347m14.18 104.205c-.608 15.91-4.251 31.304-10.749 45.756a122 122 0 0 1-6.346 12.206c-.516.881-1.062 1.731-1.578 2.611-.82 1.276-1.64 2.551-2.521 3.826a131 131 0 0 1-5.434 7.348 108 108 0 0 1-2.946 3.522c-.668.759-1.336 1.548-2.034 2.307a129 129 0 0 1-7.591 7.682 119 119 0 0 1-8.228 6.984 77 77 0 0 1-2.459 1.852 104 104 0 0 1-3.735 2.641 114 114 0 0 1-7.742 4.858 172 172 0 0 1-4.008 2.217c-.911.455-1.822.941-2.703 1.396a123 123 0 0 1-12.661 5.405 122 122 0 0 1-46.455 7.166c-15.91-.608-31.303-4.251-45.756-10.779a160 160 0 0 1-5.162-2.46l-.91-.455a13 13 0 0 1-.912-.486c-.303-.152-.607-.334-.91-.486a95 95 0 0 1-1.792-1.002 8 8 0 0 1-.88-.516c-.88-.516-1.761-1.032-2.611-1.548a22 22 0 0 1-.881-.547c-.304-.182-.577-.364-.88-.546s-.577-.365-.85-.547a21 21 0 0 1-.85-.546 9 9 0 0 1-.851-.577c-.273-.182-.577-.365-.85-.577-.273-.182-.577-.395-.85-.577-.274-.182-.547-.395-.85-.577-.274-.182-.547-.395-.82-.607-.182-.122-.365-.273-.547-.395-.273-.212-.546-.395-.85-.607-.364-.273-.729-.547-1.093-.79-.364-.273-.698-.546-1.063-.819-.334-.243-.668-.517-.971-.759-.668-.547-1.336-1.063-2.004-1.61a15 15 0 0 1-.79-.668c-.243-.212-.486-.394-.728-.607-.547-.455-1.093-.941-1.61-1.397-.273-.243-.516-.455-.759-.698-.273-.243-.516-.455-.759-.698-.334-.304-.637-.577-.941-.881-.304-.273-.607-.546-.88-.85-.092-.091-.183-.152-.243-.243-.243-.243-.486-.455-.73-.698l-.03-.031c-.303-.273-.576-.576-.88-.85l-.091-.091c-.273-.303-.577-.577-.85-.85-.304-.304-.607-.638-.911-.941-.304-.304-.607-.638-.911-.941-.304-.334-.607-.638-.91-.972-.062-.061-.092-.121-.153-.182-5.1-5.648-6.315-13.512-3.765-20.222 1.033-2.732 2.703-5.252 5.01-7.378 7.895-7.287 20.222-6.892 27.6.881l.182.182c.273.303.577.607.85.911.243.243.486.516.729.759l1.366 1.366c.152.152.334.334.516.486.334.334.668.638 1.002.941.243.243.517.486.76.698.212.183.424.395.637.577.304.274.607.547.91.79.274.243.517.455.79.668l.638.546c.577.486 1.184.972 1.791 1.427l.82.638.82.638c.273.212.546.394.82.607s.577.395.85.607c.273.213.577.395.85.577.304.182.577.395.85.577.031 0 .031.03.061.03a59 59 0 0 0 3.431 2.156s.03 0 .03.03c.547.334 1.093.638 1.67.942l1.002.546c.516.304 1.063.577 1.579.85l.547.274c.516.273 1.032.516 1.578.759.638.303 1.245.607 1.883.88.759.334 1.518.668 2.277.972.85.364 1.731.698 2.581 1.032l1.731.638a81.7 81.7 0 0 0 16.122 3.916c.607.092 1.215.152 1.852.243l.911.091c.607.061 1.245.122 1.852.183.911.091 1.852.151 2.794.182.303 0 .607.03.941.03.85.031 1.67.061 2.52.061h2.52c.334 0 .668 0 1.002-.03.334 0 .668-.031 1.002-.031.668-.03 1.336-.061 2.004-.121.334-.031.668-.031 1.002-.061l2.004-.182a82 82 0 0 0 8.623-1.367 84.5 84.5 0 0 0 10.839-3.097c10.506-3.795 20.009-9.594 28.238-17.215s14.756-16.639 19.341-26.841c1.548-3.461 2.884-6.983 3.947-10.566.82-2.793 1.518-5.617 2.034-8.501.121-.668.243-1.306.334-1.974.061-.334.091-.668.152-1.002.091-.668.182-1.336.273-1.974.03-.334.091-.668.122-1.002l.091-1.002c.091-.819.151-1.669.212-2.52.061-.85.091-1.67.122-2.52 0-.334.03-.668.03-1.002v-4.706c-8.805.182-17.61-2.247-25.201-7.257.061.486.152.972.213 1.427.03.213.06.395.091.608.121.971.243 1.943.303 2.915 0 .212.031.425.061.637 0 .243.03.516.061.759.03.425.03.85.06 1.275.031.517.031 1.033.031 1.549v1.366c0 .243 0 .486-.031.759 0 .243 0 .456-.03.699 0 .243-.03.455-.03.698s-.031.455-.031.698c-.03.456-.06.942-.091 1.397 0 .213-.03.456-.06.698l-.092.911-.182 1.367a59 59 0 0 1-.698 4.038c-.152.698-.304 1.397-.486 2.064a53 53 0 0 1-1.397 4.767c-.273.79-.546 1.579-.85 2.338s-.607 1.549-.941 2.308c-.091.212-.182.425-.304.668-.091.212-.182.425-.303.668-.213.425-.395.88-.638 1.305a6 6 0 0 1-.334.638c-.212.425-.455.85-.668 1.275-.212.425-.455.85-.698 1.276a61 61 0 0 1-1.124 1.882c-.485.789-1.002 1.549-1.518 2.308-.425.637-.911 1.275-1.366 1.882-.304.395-.607.759-.911 1.154a35 35 0 0 1-1.913 2.277c-.152.182-.334.364-.486.547-.151.182-.334.364-.516.546-.485.547-1.032 1.093-1.548 1.609l-.031.031c-.364.364-.728.698-1.093 1.062l-.273.274-.273.273c-.516.486-1.032.941-1.579 1.397-.516.455-1.063.91-1.609 1.336-.668.546-1.367 1.062-2.065 1.578-.243.183-.455.334-.698.517-.425.303-.85.607-1.275.88a31 31 0 0 1-1.276.85c-.425.274-.88.547-1.305.79-.425.273-.881.516-1.336.759-.182.121-.395.212-.577.334l-1.184.637c-.182.091-.395.213-.608.304s-.394.213-.607.304-.394.212-.607.303c-.516.243-1.002.486-1.518.699l-1.549.637c-.425.182-.819.334-1.245.486-.425.152-.819.304-1.244.455-.213.092-.425.152-.638.213s-.425.152-.638.212c-.212.061-.425.122-.637.213-.365.121-.729.243-1.124.334-.06 0-.091.03-.151.03l-.638.183c-.425.121-.85.242-1.245.334-.638.151-1.306.334-1.943.455-.425.091-.85.182-1.306.273-.212.031-.425.091-.637.122-.213.03-.425.091-.638.121-.213.031-.425.061-.638.122l-.637.091c-.82.121-1.67.243-2.52.334-.243.03-.456.03-.699.06-2.58.243-5.161.304-7.742.213-.243 0-.456 0-.698-.03-.911-.031-1.822-.122-2.733-.183a2.7 2.7 0 0 1-.486-.06c-.273-.031-.546-.061-.789-.091-.152-.031-.334-.031-.517-.061-.485-.061-.971-.122-1.457-.213l-.638-.091c-.425-.06-.85-.152-1.305-.243-.213-.03-.425-.091-.638-.121l-1.275-.273c-.85-.183-1.67-.395-2.52-.608-.243-.06-.456-.121-.698-.182-.395-.121-.79-.212-1.185-.334a69 69 0 0 1-3.279-1.093c-.394-.152-.789-.303-1.153-.455-.608-.243-1.245-.486-1.853-.759-.212-.091-.394-.183-.607-.274s-.395-.182-.607-.273c-.395-.182-.79-.364-1.215-.577a6 6 0 0 1-.607-.303c-.212-.091-.395-.213-.607-.304-.213-.091-.395-.213-.577-.304a6 6 0 0 1-.577-.334 66 66 0 0 1-5.192-3.188 8 8 0 0 0-.516-.364c-.182-.152-.395-.273-.607-.425l-1.093-.82a6 6 0 0 1-.547-.425c-.182-.121-.334-.273-.486-.395a9 9 0 0 0-.577-.455 31 31 0 0 0-.516-.425 8 8 0 0 1-.516-.456l-.638-.546a11 11 0 0 1-.637-.577 8 8 0 0 1-.516-.486c-.122-.091-.213-.212-.334-.334-.183-.182-.365-.334-.547-.516l-1.093-1.093c-.182-.182-.364-.395-.577-.577-.182-.213-.395-.425-.607-.638l-.182-.182c-9.565-10.202-22.803-14.847-35.768-13.815-9.503.759-18.824 4.615-26.354 11.568a44 44 0 0 0-7.773 9.474 114 114 0 0 1-2.065-5.314c-.516-1.457-1.032-2.884-1.488-4.342-.425-1.366-.85-2.732-1.214-4.099-.395-1.427-.76-2.854-1.123-4.281-.243-.941-.456-1.913-.668-2.884-.091-.486-.213-.972-.304-1.458-.091-.455-.182-.88-.273-1.336 0-.06-.03-.152-.03-.212-.092-.456-.183-.881-.244-1.336-.09-.486-.182-.972-.242-1.458l-.456-2.914c-.06-.395-.121-.82-.182-1.215 0-.121-.03-.273-.06-.395-.061-.425-.092-.819-.153-1.245v-.121c-.06-.455-.09-.911-.151-1.366-.091-.972-.183-1.944-.274-2.945l-.09-1.397v-.122c-.031-.303-.031-.637-.061-.941-.03-.455-.061-.88-.061-1.336v-.243c0-.334-.03-.637-.03-.941s-.031-.638-.031-.941c-.03-1.002-.06-2.004-.06-3.006v-2.824q0-1.548.09-3.097c.608-15.91 4.251-31.304 10.749-45.756a122 122 0 0 1 6.346-12.206c.516-.88 1.062-1.73 1.578-2.611.82-1.275 1.64-2.55 2.52-3.826a131 131 0 0 1 5.435-7.348 107 107 0 0 1 2.946-3.522c.668-.759 1.336-1.548 2.034-2.307a129 129 0 0 1 7.59-7.682 119 119 0 0 1 8.229-6.983 75 75 0 0 1 2.46-1.853c1.214-.91 2.489-1.791 3.734-2.641 2.52-1.73 5.1-3.34 7.742-4.858 1.336-.76 2.642-1.488 4.008-2.217.911-.486 1.822-.941 2.703-1.396a123 123 0 0 1 12.661-5.405 122 122 0 0 1 46.455-7.165c15.91.607 31.303 4.22 45.756 10.748 1.731.79 3.461 1.61 5.162 2.46.303.151.607.303.911.485.303.152.607.304.91.486.304.152.608.334.911.486.608.334 1.215.668 1.792 1.002.303.151.607.334.88.516.881.516 1.761 1.032 2.611 1.548.304.182.608.365.881.547.304.182.577.364.88.546s.577.365.851.547c.303.182.577.364.85.546.303.182.577.365.85.577.273.182.577.365.85.577.273.182.577.395.85.577.274.182.547.395.85.577.274.182.547.395.82.607.182.122.365.273.547.395.273.212.546.395.85.607.364.273.729.516 1.093.79.364.273.698.546 1.063.82.334.242.668.516.971.758.668.547 1.336 1.063 2.004 1.61.273.212.516.425.79.668.243.212.485.394.728.607.547.455 1.093.91 1.61 1.397.273.242.516.455.759.698.242.243.516.455.759.698.334.304.637.577.941.88.304.274.607.547.88.85.092.092.183.153.243.244.243.243.486.455.729.698l.03.03c.304.274.577.577.881.85l.091.092c.273.303.577.577.85.85.304.304.607.637.911.941s.607.638.911.941c.273.274.516.577.789.85l.091.122c.061.06.091.121.152.182 5.101 5.648 6.316 13.512 3.765 20.222-1.032 2.732-2.702 5.252-5.01 7.378-7.894 7.287-20.221 6.892-27.599-.88l-.182-.183-.122-.152c-.243-.243-.486-.516-.729-.759s-.485-.516-.728-.759c-.456-.455-.881-.91-1.367-1.366a8 8 0 0 0-.516-.486c-.334-.334-.668-.638-1.002-.941a16 16 0 0 0-.759-.698c-.212-.183-.425-.395-.637-.577a22 22 0 0 0-.911-.79 15 15 0 0 0-.79-.668l-.637-.546a41 41 0 0 0-1.792-1.427l-.82-.638-.819-.638c-.274-.212-.547-.394-.82-.607s-.577-.395-.85-.607c-.274-.213-.577-.395-.85-.577-.274-.182-.577-.395-.851-.577-.03 0-.03-.03-.06-.03a59 59 0 0 0-3.431-2.156s-.031 0-.031-.03a29 29 0 0 0-1.67-.942l-1.002-.546c-.516-.304-1.062-.577-1.578-.85l-.547-.273a25 25 0 0 0-1.579-.76c-.637-.303-1.245-.607-1.882-.88-.759-.334-1.518-.668-2.278-.972-.85-.364-1.73-.698-2.58-1.032l-1.731-.638a81.7 81.7 0 0 0-16.123-3.916c-.607-.092-1.214-.152-1.852-.243l-.911-.092c-.607-.06-1.244-.12-1.852-.182a42 42 0 0 0-2.793-.182c-.304 0-.607-.03-.941-.03-.85-.03-1.67-.06-2.52-.06h-2.52c-.334 0-.668 0-1.002.03-.334 0-.668.03-1.002.03-.668.03-1.336.06-2.004.121-.334.03-.668.03-1.002.061l-2.004.182c-2.915.304-5.769.76-8.623 1.366a85 85 0 0 0-10.84 3.097c-10.505 3.796-20.009 9.595-28.237 17.216S75.68 102.48 71.095 112.682c-1.549 3.461-2.885 6.983-3.947 10.566-.82 2.793-1.518 5.617-2.034 8.501-.122.668-.243 1.306-.334 1.974-.061.334-.091.668-.152 1.002a314 314 0 0 1-.273 1.974c-.03.334-.092.668-.122 1.002l-.091 1.001a70.11 70.11 0 0 0-.334 5.041c0 .334-.03.668-.03 1.002v4.706c8.805-.182 17.61 2.247 25.2 7.257-.09-.486-.151-.972-.212-1.428-.03-.212-.06-.394-.091-.607-.121-.971-.243-1.943-.304-2.915-.03-.212-.03-.425-.06-.637-.03-.273-.03-.516-.061-.759-.03-.425-.03-.85-.06-1.275-.031-.517-.031-1.033-.031-1.549v-1.366c0-.243 0-.486.03-.759 0-.243 0-.456.03-.699 0-.243 0-.455.03-.698 0-.243.031-.486.031-.698l.091-1.397c0-.243.03-.456.061-.698l.091-.911.182-1.367c.183-1.366.425-2.702.699-4.038.151-.698.303-1.397.486-2.065.394-1.609.85-3.188 1.396-4.766.273-.79.547-1.579.85-2.338.304-.759.608-1.549.942-2.308.09-.212.182-.425.303-.668.091-.212.182-.425.304-.668.212-.425.394-.85.637-1.305.091-.213.213-.426.334-.638.213-.425.425-.85.668-1.275s.456-.85.699-1.276c.364-.637.728-1.244 1.123-1.882a61 61 0 0 1 1.518-2.308c.425-.637.911-1.275 1.367-1.882.303-.395.607-.759.91-1.154a64 64 0 0 1 1.913-2.277c.152-.182.334-.364.486-.547.152-.182.334-.364.516-.546a77 77 0 0 1 1.549-1.609l.03-.031c.364-.364.698-.698 1.093-1.062l.273-.274.274-.273c.516-.486 1.062-.941 1.579-1.427.546-.455 1.062-.911 1.609-1.336a54 54 0 0 1 2.064-1.579c.243-.182.456-.334.699-.516a32 32 0 0 1 1.275-.88c.425-.304.85-.577 1.275-.85a30 30 0 0 1 1.306-.79c.425-.273.88-.516 1.336-.76.182-.12.395-.212.577-.333l1.184-.638c.212-.09.395-.212.607-.303.213-.091.395-.213.607-.304.213-.091.395-.182.608-.304.516-.242 1.002-.455 1.518-.698l1.548-.638c.395-.182.82-.334 1.245-.485.425-.152.82-.304 1.245-.456.213-.06.425-.152.638-.212.212-.061.425-.152.637-.213.213-.06.425-.152.638-.212.364-.122.729-.243 1.123-.334.061 0 .091-.03.152-.03l.638-.183c.425-.121.85-.243 1.245-.334.637-.152 1.305-.334 1.943-.455.425-.091.85-.183 1.305-.274.213-.03.425-.09.638-.121.212-.03.425-.091.638-.121.212-.03.425-.061.637-.122l.638-.091c.85-.121 1.67-.243 2.52-.334.243-.03.455-.06.698-.06 2.581-.244 5.162-.335 7.743-.213.243 0 .455 0 .698.03.911.03 1.822.091 2.733.213.152 0 .334.03.486.06.273.03.546.061.789.091.182.03.334.03.516.061.486.06.972.122 1.458.213l.637.09c.425.062.85.153 1.306.244.212.03.425.09.637.121l1.276.273c.85.183 1.67.395 2.52.608.243.06.455.121.698.182.395.121.789.243 1.184.334q1.64.5 3.279 1.093c.395.152.79.303 1.154.455.607.243 1.215.486 1.852.76.213.09.395.181.607.273.213.09.395.182.608.273.394.182.789.364 1.214.577.213.09.395.182.607.303.213.091.395.213.608.304s.394.213.577.304c.182.09.394.212.577.334a66 66 0 0 1 5.192 3.188c.182.121.334.243.516.364.212.152.394.273.607.425l1.093.82c.182.121.364.273.547.425.182.121.334.273.485.395.183.152.395.303.577.455s.365.304.516.425c.183.152.365.304.517.456l.637.546c.213.182.425.365.638.577.182.152.364.334.516.486.121.091.212.212.334.334.182.182.364.334.546.516l1.094 1.093c.182.182.364.395.576.577.152.152.304.304.456.486l.334.364c9.564 10.202 22.802 14.847 35.767 13.815 9.504-.759 18.825-4.615 26.355-11.568a44 44 0 0 0 7.773-9.473 113 113 0 0 1 2.064 5.313c.516 1.458 1.033 2.885 1.488 4.373.425 1.366.85 2.732 1.215 4.098.394 1.428.759 2.855 1.123 4.282.243.941.455 1.912.668 2.884.091.486.213.972.304 1.457.03.183.091.395.121.608.061.243.091.486.152.759.03.061.03.121.03.212.091.456.182.881.243 1.336.091.486.182.972.243 1.458l.455 2.915c.061.394.122.819.183 1.214 0 .121.03.273.06.395.061.425.091.82.152 1.245v.121c.061.455.091.911.152 1.366.091.972.182 1.944.273 2.946.031.455.061.941.091 1.396v.122c.031.303.031.607.061.941.03.455.061.88.061 1.336v.243c0 .334.03.637.03.941s.031.607.031.941c.03 1.002.06 2.004.06 3.006v2.824a34 34 0 0 1-.06 3.006"/></svg>
