<svg xmlns="http://www.w3.org/2000/svg" data-name="Layer 1" viewBox="0 0 272.9 44.55"><path d="m27.39 11.64-7.55 32.48a.57.57 0 0 1-.55.43H6.69a.56.56 0 0 1-.55-.69l7.48-32.22H.57a.57.57 0 0 1-.56-.7L2.42.44A.55.55 0 0 1 3 0h40.1a.57.57 0 0 1 .55.69l-2.4 10.51a.58.58 0 0 1-.55.44Zm54.69 11.44a19.56 19.56 0 0 1-9.41 6.45l8.22 14.17a.56.56 0 0 1-.49.85H66.49a.57.57 0 0 1-.5-.29l-7.41-13.4h-3.73l-3 13.25a.57.57 0 0 1-.56.44H38.67a.57.57 0 0 1-.55-.69L48.1.44a.57.57 0 0 1 .55-.44h22q7 0 10.94 3.46a11.9 11.9 0 0 1 3.95 9.44 16.07 16.07 0 0 1-3.46 10.18m-17.39-2.86a7.8 7.8 0 0 0 5-1.57 4.72 4.72 0 0 0 2-3.82 3.22 3.22 0 0 0-1.23-2.69 5.4 5.4 0 0 0-3.43-1h-7.66l-2.06 9Zm55.14 23.83-.67-5.55h-17l-3.43 5.78a.55.55 0 0 1-.48.27H84.34a.57.57 0 0 1-.48-.86L111.08.27a.57.57 0 0 1 .48-.27h14.7a.56.56 0 0 1 .56.48L134 43.89a.56.56 0 0 1-.56.66h-13a.57.57 0 0 1-.61-.5m-3.53-29.62-7.51 12.7h9Zm40.9 2.73h19.31a.56.56 0 0 1 .55.69L175 27a.58.58 0 0 1-.55.44h-19.57l-1.34 5.78H175a.57.57 0 0 1 .56.7l-2.4 10.24a.57.57 0 0 1-.55.43h-34.78a.57.57 0 0 1-.55-.69L147.33.44a.56.56 0 0 1 .55-.44h34.41a.57.57 0 0 1 .56.69l-2.34 10.24a.57.57 0 0 1-.55.44h-21.43ZM207.88 0q9.51 0 15.23 5t5.71 13.67a24.27 24.27 0 0 1-8.11 18.29q-8.11 7.64-20.21 7.64H180a.57.57 0 0 1-.56-.69l7.49-32.42 2.56-11A.57.57 0 0 1 190 0Zm-8.25 32.78A15.7 15.7 0 0 0 210 29a11.71 11.71 0 0 0 4.52-9.31 7.78 7.78 0 0 0-2.4-6 9.56 9.56 0 0 0-6.71-2.19h-4.71l-4.92 21.34Zm47.61-15.62h19.31a.56.56 0 0 1 .55.69L265 27a.58.58 0 0 1-.55.44h-19.53l-1.33 5.78H265a.57.57 0 0 1 .55.7l-2.4 10.24a.57.57 0 0 1-.55.43h-34.72a.57.57 0 0 1-.56-.69L237.37.44a.57.57 0 0 1 .55-.44h34.41a.57.57 0 0 1 .56.69l-2.34 10.24a.57.57 0 0 1-.55.44h-21.43Z"/></svg>