<svg xmlns="http://www.w3.org/2000/svg" xml:space="preserve" width="300" height="42" viewBox="0 0 300 42"><path fill="#808285" fill-rule="evenodd" d="M75.155 15.375V29.71c0 4.603-3.131 6.375-6.525 6.375-3.697 0-6.375-2.227-6.375-5.923V15.375h-6.412V30.01c0 7.961 5.393 11.432 12.862 11.432 7.054 0 12.863-2.943 12.863-11.468V15.375zm41.622 0h-6.413v15.73l-13.73-15.73h-5.885v25.727h6.413V24.618l14.22 16.484h5.395zm9.589 0h6.413v25.726h-6.413zm76.969 12.864c0-6.187-5.017-13.203-14.712-13.203-9.693 0-14.748 6.977-14.748 13.203 0 6.563 5.318 13.202 14.748 13.202 9.241 0 14.712-6.601 14.712-13.202m-6.602 0c0 4.715-3.244 7.846-8.11 7.846-4.902 0-8.146-3.131-8.146-7.846 0-4.716 3.244-7.846 8.146-7.846 4.866 0 8.11 3.13 8.11 7.846m40.908-12.864h-6.412v15.73l-13.731-15.73h-5.885v25.727h6.413V24.618l14.22 16.484h5.395zm31.569 0h-25.048v4.715h9.317v21.012h6.414V20.09h9.317zm15.41 6.149-7.392 19.578h-6.79l10.373-25.727h7.43l11.429 25.727h-6.902zM161.225 23.29c-1.411-1.829-3.7-2.897-6.544-2.897-4.902 0-8.147 3.13-8.147 7.846 0 4.715 3.245 7.846 8.147 7.846 2.843 0 5.133-1.068 6.544-2.897h7.125c-1.998 4.594-6.787 8.254-13.669 8.254-9.429 0-14.748-6.639-14.748-13.202 0-6.226 5.055-13.203 14.748-13.203 7.126 0 11.724 3.788 13.661 8.253z" clip-rule="evenodd"/><path fill="#5cc4bf" d="M13.622 28.177c5.359-.006 7.392-2.17 7.392-5.783l-.002-1.536-1.605.002c-3.61 0-5.772 1.598-5.785 7.317m12.657-7.324c-.838 5.699-6.069 9.356-12.535 9.41.502 3.864 2.542 5.381 5.664 5.381l21.742-.021v5.381l-18.573.021c-6.056 0-10.218-4.672-10.931-10.873C5.459 29.429.8 25.27.8 19.223L.804.651h5.403l.023 21.743c0 3.144 1.213 5.19 5.307 5.674.06-6.482 3.74-11.72 9.47-12.529L20.991.651h5.382l.019 14.775 14.757-.019v5.429z"/></svg>