<svg xmlns="http://www.w3.org/2000/svg" xml:space="preserve" viewBox="0 0 500 200"><path d="M223.72 114.43c-2.29 5.92-5.65 10.8-10.07 14.64l10.89 17.09h-11l-7.95-11.86c-5.01 2.32-10.74 3.48-17.2 3.48-8.35 0-15.42-1.92-21.23-5.77s-10.14-9.02-13.01-15.51c-2.87-6.5-4.3-13.63-4.3-21.39s1.43-14.88 4.3-21.34 7.2-11.61 13.01-15.46c5.8-3.85 12.88-5.77 21.23-5.77s15.55 1.92 21.39 5.77 10.2 8.98 13.06 15.4c2.87 6.42 4.3 13.55 4.3 21.39 0 6.98-1.14 13.42-3.42 19.33m-60.53-1.9c2.21 5.08 5.46 9.05 9.74 11.92s9.43 4.3 15.46 4.3c6.02 0 11.3-1.43 15.62-4.3s7.58-6.84 9.8-11.92c2.21-5.08 3.32-10.89 3.32-17.42s-1.11-12.32-3.32-17.36-5.48-9-9.8-11.86c-4.32-2.87-9.53-4.3-15.62-4.3-6.1 0-11.18 1.43-15.46 4.3s-7.53 6.82-9.74 11.86c-2.21 5.05-3.32 10.83-3.32 17.36s1.11 12.34 3.32 17.42m79.96 15.79c-1.89-3.56-2.83-8.75-2.83-15.57V76.5h9.25v36.25q0 9.585 3.48 13.5c2.03 2.25 5.12 3.37 9.25 3.37 4.57 0 8.23-1.49 10.99-4.46 1.96-2.03 3.36-4.83 4.19-8.38s1.25-8.42 1.25-14.59V76.5H288v60.2h-9.25v-9.36c-2.9 3.7-5.75 6.37-8.55 8s-5.9 2.45-9.31 2.45c-8.42-.01-14.33-3.16-17.74-9.47m59.98-64.18c-1.38-1.34-2.07-2.96-2.07-4.84 0-1.89.69-3.48 2.07-4.79s3.05-1.96 5.01-1.96 3.63.65 5.01 1.96 2.07 2.9 2.07 4.79-.69 3.5-2.07 4.84q-2.07 2.01-5.01 2.01t-5.01-2.01m9.58 72.55h-9.25V76.5h9.25zm39.73.01h-7.62l-22.21-60.2h10.23l15.78 44.52 16-44.52h10.12zm42.73-2.94c-4.46-2.68-7.93-6.39-10.4-11.1-2.47-4.72-3.7-10.02-3.7-15.89 0-5.88 1.16-10.76 3.48-15.51s5.68-8.58 10.07-11.48q6.585-4.35 15.51-4.35 7.725 0 14.37 3.48c4.43 2.32 7.98 5.72 10.67 10.18 2.68 4.46 4.03 9.82 4.03 16.06v3.27h-48.99c.14 2.11.54 4.1 1.2 5.99 1.53 4.65 3.97 8.35 7.35 11.1 3.38 2.76 7.2 4.14 11.48 4.14s8.09-1.16 11.21-3.48q4.68-3.48 6.75-8.82h9.91c-1.96 6.1-5.3 11.03-10.01 14.81-4.72 3.77-10.63 5.66-17.75 5.66-5.66-.04-10.72-1.38-15.18-4.06m34.13-33.53c-.15-2.18-.58-4.14-1.31-5.88-1.52-3.41-3.87-6.06-7.02-7.95-3.16-1.89-6.7-2.83-10.61-2.83-3.92 0-7.49.94-10.5 2.83q-4.515 2.835-7.02 7.95-1.095 2.4-1.74 5.88zm22.75 36.47V76.5h9.25v8.27c2.76-3.34 5.7-5.73 8.82-7.19 3.12-1.45 6.75-2.18 10.89-2.18h.43v9.25h-3.16c-4.86 0-8.75 1.45-11.65 4.35-3.56 3.41-5.34 8.75-5.34 16v31.68h-9.24zm-345.8-69.79c-.04-.05-.08-.09-.13-.14l-.03-.03c-.03-.04-.07-.07-.1-.11C87.82 47.14 57.28 46 37.7 64.12s-20.81 48.65-2.79 68.28c.03.03.05.06.08.09l.04.05c.04.05.09.09.13.14 18.17 19.5 48.71 20.64 68.29 2.52 19.59-18.12 20.82-48.65 2.8-68.29m4.67 34.32a40.35 40.35 0 0 1-5.63 19.09c-.17.29-.35.57-.52.86-.27.42-.54.84-.83 1.26a43 43 0 0 1-1.79 2.42c-.31.39-.64.78-.97 1.16-.22.25-.44.51-.67.76-.79.87-1.63 1.72-2.5 2.53a39 39 0 0 1-3.52 2.91c-.4.3-.82.59-1.23.87-.83.57-1.68 1.1-2.55 1.6-.44.25-.87.49-1.32.73-.3.15-.6.31-.89.46a40.2 40.2 0 0 1-19.47 4.14c-5.24-.2-10.31-1.4-15.07-3.55-.57-.26-1.14-.53-1.7-.81l-.3-.15c-.1-.05-.2-.1-.3-.16-.1-.05-.2-.11-.3-.16-.2-.11-.4-.22-.59-.33-.1-.05-.2-.11-.29-.17-.29-.17-.58-.34-.86-.51-.1-.06-.2-.12-.29-.18-.1-.06-.19-.12-.29-.18s-.19-.12-.28-.18c-.1-.06-.19-.12-.28-.18-.1-.06-.19-.12-.28-.19-.09-.06-.19-.12-.28-.19l-.28-.19c-.09-.06-.18-.13-.28-.19-.09-.06-.18-.13-.27-.2-.06-.04-.12-.09-.18-.13-.09-.07-.18-.13-.28-.2a8 8 0 0 0-.36-.26c-.12-.09-.23-.18-.35-.27-.11-.08-.22-.17-.32-.25-.22-.18-.44-.35-.66-.53-.09-.07-.17-.14-.26-.22-.08-.07-.16-.13-.24-.2-.18-.15-.36-.31-.53-.46-.09-.08-.17-.15-.25-.23-.09-.08-.17-.15-.25-.23-.11-.1-.21-.19-.31-.29-.1-.09-.2-.18-.29-.28-.03-.03-.06-.05-.08-.08-.08-.08-.16-.15-.24-.23l-.01-.01c-.1-.09-.19-.19-.29-.28l-.03-.03c-.09-.1-.19-.19-.28-.28-.1-.1-.2-.21-.3-.31s-.2-.21-.3-.31c-.1-.11-.2-.21-.3-.32-.02-.02-.03-.04-.05-.06a6.5 6.5 0 0 1-1.24-6.66c.34-.9.89-1.73 1.65-2.43 2.6-2.4 6.66-2.27 9.09.29l.06.06c.09.1.19.2.28.3.08.08.16.17.24.25l.45.45c.05.05.11.11.17.16.11.11.22.21.33.31.08.08.17.16.25.23.07.06.14.13.21.19.1.09.2.18.3.26.09.08.17.15.26.22l.21.18c.19.16.39.32.59.47l.27.21.27.21c.09.07.18.13.27.2s.19.13.28.2.19.13.28.19c.1.06.19.13.28.19.01 0 .01.01.02.01.37.25.75.49 1.13.71 0 0 .01 0 .01.01.18.11.36.21.55.31l.33.18c.17.1.35.19.52.28l.18.09c.17.09.34.17.52.25.21.1.41.2.62.29.25.11.5.22.75.32.28.12.57.23.85.34l.57.21c1.72.61 3.5 1.04 5.31 1.29.2.03.4.05.61.08l.3.03.61.06c.3.03.61.05.92.06.1 0 .2.01.31.01.28.01.55.02.83.02h.83c.11 0 .22 0 .33-.01.11 0 .22-.01.33-.01.22-.01.44-.02.66-.04.11-.01.22-.01.33-.02l.66-.06a27 27 0 0 0 6.41-1.47c3.46-1.25 6.59-3.16 9.3-5.67s4.86-5.48 6.37-8.84c.51-1.14.95-2.3 1.3-3.48.27-.92.5-1.85.67-2.8.04-.22.08-.43.11-.65.02-.11.03-.22.05-.33l.09-.65c.01-.11.03-.22.04-.33l.03-.33c.03-.27.05-.55.07-.83s.03-.55.04-.83c0-.11.01-.22.01-.33v-1.55c-2.9.06-5.8-.74-8.3-2.39.02.16.05.32.07.47l.03.2c.04.32.08.64.1.96 0 .07.01.14.02.21 0 .08.01.17.02.25.01.14.01.28.02.42.01.17.01.34.01.51v.45c0 .08 0 .16-.01.25 0 .08 0 .15-.01.23 0 .08-.01.15-.01.23s-.01.15-.01.23l-.03.46c0 .07-.01.15-.02.23l-.03.3-.06.45c-.06.45-.14.89-.23 1.33-.05.23-.1.46-.16.68-.13.53-.28 1.05-.46 1.57-.09.26-.18.52-.28.77s-.2.51-.31.76c-.03.07-.06.14-.1.22-.03.07-.06.14-.1.22-.07.14-.13.29-.21.43-.03.07-.07.14-.11.21-.07.14-.15.28-.22.42s-.15.28-.23.42c-.12.21-.24.41-.37.62-.16.26-.33.51-.5.76-.14.21-.3.42-.45.62-.1.13-.2.25-.3.38q-.3.39-.63.75c-.05.06-.11.12-.16.18s-.11.12-.17.18c-.16.18-.34.36-.51.53l-.01.01c-.12.12-.24.23-.36.35l-.09.09-.09.09c-.17.16-.34.31-.52.46-.17.15-.35.3-.53.44-.22.18-.45.35-.68.52l-.23.17c-.14.1-.28.2-.42.29-.14.1-.28.19-.42.28s-.29.18-.43.26c-.14.09-.29.17-.44.25-.06.04-.13.07-.19.11l-.39.21c-.06.03-.13.07-.2.1s-.13.07-.2.1-.13.07-.2.1c-.17.08-.33.16-.5.23l-.51.21c-.14.06-.27.11-.41.16s-.27.1-.41.15c-.07.03-.14.05-.21.07s-.14.05-.21.07-.14.04-.21.07c-.12.04-.24.08-.37.11-.02 0-.03.01-.05.01l-.21.06c-.14.04-.28.08-.41.11-.21.05-.43.11-.64.15-.14.03-.28.06-.43.09-.07.01-.14.03-.21.04s-.14.03-.21.04-.14.02-.21.04l-.21.03c-.27.04-.55.08-.83.11-.08.01-.15.01-.23.02-.85.08-1.7.1-2.55.07-.08 0-.15 0-.23-.01-.3-.01-.6-.04-.9-.06-.05 0-.11-.01-.16-.02l-.26-.03c-.05-.01-.11-.01-.17-.02-.16-.02-.32-.04-.48-.07l-.21-.03c-.14-.02-.28-.05-.43-.08-.07-.01-.14-.03-.21-.04l-.42-.09c-.28-.06-.55-.13-.83-.2l-.23-.06c-.13-.04-.26-.07-.39-.11q-.54-.165-1.08-.36c-.13-.05-.26-.1-.38-.15-.2-.08-.41-.16-.61-.25-.07-.03-.13-.06-.2-.09s-.13-.06-.2-.09c-.13-.06-.26-.12-.4-.19-.07-.03-.13-.06-.2-.1-.07-.03-.13-.07-.2-.1s-.13-.07-.19-.1-.13-.07-.19-.11q-.87-.48-1.71-1.05c-.05-.04-.11-.08-.17-.12-.06-.05-.13-.09-.2-.14l-.36-.27c-.06-.04-.12-.09-.18-.14-.06-.04-.11-.09-.16-.13-.06-.05-.12-.1-.19-.15l-.17-.14c-.06-.05-.12-.1-.17-.15l-.21-.18c-.07-.06-.14-.12-.21-.19-.06-.05-.12-.11-.17-.16-.04-.03-.07-.07-.11-.11-.06-.06-.12-.11-.18-.17l-.36-.36c-.06-.06-.12-.13-.19-.19-.06-.07-.13-.14-.2-.21l-.06-.06c-3.15-3.36-7.51-4.89-11.78-4.55-3.13.25-6.2 1.52-8.68 3.81-1.02.94-1.87 1.99-2.56 3.12-.24-.58-.47-1.16-.68-1.75-.17-.48-.34-.95-.49-1.43-.14-.45-.28-.9-.4-1.35-.13-.47-.25-.94-.37-1.41-.08-.31-.15-.63-.22-.95-.03-.16-.07-.32-.1-.48l-.09-.44c0-.02-.01-.05-.01-.07-.03-.15-.06-.29-.08-.44-.03-.16-.06-.32-.08-.48l-.15-.96-.06-.4c0-.04-.01-.09-.02-.13-.02-.14-.03-.27-.05-.41v-.04c-.02-.15-.03-.3-.05-.45l-.09-.97-.03-.46v-.04c-.01-.1-.01-.21-.02-.31-.01-.15-.02-.29-.02-.44v-.08c0-.11-.01-.21-.01-.31s-.01-.21-.01-.31c-.01-.33-.02-.66-.02-.99v-.93q0-.51.03-1.02a40.35 40.35 0 0 1 5.63-19.09c.17-.29.35-.57.52-.86.27-.42.54-.84.83-1.26a43 43 0 0 1 1.79-2.42c.31-.39.64-.78.97-1.16.22-.25.44-.51.67-.76.79-.87 1.63-1.72 2.5-2.53a39 39 0 0 1 3.52-2.91c.4-.3.82-.59 1.23-.87.83-.57 1.68-1.1 2.55-1.6.44-.25.87-.49 1.32-.73.3-.16.6-.31.89-.46a40.2 40.2 0 0 1 19.47-4.14c5.24.2 10.31 1.39 15.07 3.54.57.26 1.14.53 1.7.81.1.05.2.1.3.16.1.05.2.1.3.16.1.05.2.11.3.16.2.11.4.22.59.33.1.05.2.11.29.17.29.17.58.34.86.51.1.06.2.12.29.18.1.06.19.12.29.18s.19.12.28.18c.1.06.19.12.28.18.1.06.19.12.28.19.09.06.19.12.28.19l.28.19c.09.06.18.13.28.19.09.06.18.13.27.2.06.04.12.09.18.13.09.07.18.13.28.2.12.09.24.17.36.26s.23.18.35.27c.11.08.22.17.32.25.22.18.44.35.66.53.09.07.17.14.26.22.08.07.16.13.24.2.18.15.36.3.53.46.09.08.17.15.25.23s.17.15.25.23c.11.1.21.19.31.29.1.09.2.18.29.28.03.03.06.05.08.08.08.08.16.15.24.23l.01.01c.1.09.19.19.29.28l.03.03c.09.1.19.19.28.28.1.1.2.21.3.31s.2.21.3.31c.09.09.17.19.26.28l.03.04c.02.02.03.04.05.06a6.5 6.5 0 0 1 1.24 6.66c-.34.9-.89 1.73-1.65 2.43-2.6 2.4-6.66 2.27-9.09-.29l-.06-.06-.04-.05c-.08-.08-.16-.17-.24-.25s-.16-.17-.24-.25c-.15-.15-.29-.3-.45-.45-.05-.05-.11-.11-.17-.16-.11-.11-.22-.21-.33-.31-.08-.08-.17-.16-.25-.23-.07-.06-.14-.13-.21-.19-.1-.09-.2-.18-.3-.26-.09-.08-.17-.15-.26-.22l-.21-.18a14 14 0 0 0-.59-.47l-.27-.21-.27-.21c-.09-.07-.18-.13-.27-.2s-.19-.13-.28-.2-.19-.13-.28-.19l-.28-.19c-.01 0-.01-.01-.02-.01-.37-.25-.75-.49-1.13-.71 0 0-.01 0-.01-.01-.18-.11-.36-.21-.55-.31l-.33-.18c-.17-.1-.35-.19-.52-.28l-.18-.09c-.17-.09-.34-.17-.52-.25-.21-.1-.41-.2-.62-.29-.25-.11-.5-.22-.75-.32-.28-.12-.57-.23-.85-.34l-.57-.21c-1.72-.61-3.5-1.04-5.31-1.29-.2-.03-.4-.05-.61-.08l-.3-.03-.61-.06c-.3-.03-.61-.05-.92-.06-.1 0-.2-.01-.31-.01-.28-.01-.55-.02-.83-.02h-.83c-.11 0-.22 0-.33.01-.11 0-.22.01-.33.01-.22.01-.44.02-.66.04-.11.01-.22.01-.33.02l-.66.06a27 27 0 0 0-6.41 1.47 27.25 27.25 0 0 0-9.3 5.67 27.2 27.2 0 0 0-6.37 8.84 28 28 0 0 0-1.3 3.48c-.27.92-.5 1.85-.67 2.8-.04.22-.08.43-.11.65-.02.11-.03.22-.05.33l-.09.65c-.01.11-.03.22-.04.33l-.03.33c-.03.27-.05.55-.07.83s-.03.55-.04.83c0 .11-.01.22-.01.33v1.55c2.9-.06 5.8.74 8.3 2.39-.03-.16-.05-.32-.07-.47l-.03-.2c-.04-.32-.08-.64-.1-.96-.01-.07-.01-.14-.02-.21-.01-.09-.01-.17-.02-.25-.01-.14-.01-.28-.02-.42-.01-.17-.01-.34-.01-.51v-.45c0-.08 0-.16.01-.25 0-.08 0-.15.01-.23 0-.08 0-.15.01-.23 0-.08.01-.16.01-.23l.03-.46c0-.08.01-.15.02-.23l.03-.3.06-.45c.06-.45.14-.89.23-1.33.05-.23.1-.46.16-.68.13-.53.28-1.05.46-1.57.09-.26.18-.52.28-.77s.2-.51.31-.76c.03-.07.06-.14.1-.22.03-.07.06-.14.1-.22.07-.14.13-.28.21-.43.03-.07.07-.14.11-.21.07-.14.14-.28.22-.42s.15-.28.23-.42c.12-.21.24-.41.37-.62.16-.26.33-.51.5-.76.14-.21.3-.42.45-.62.1-.13.2-.25.3-.38q.3-.375.63-.75c.05-.06.11-.12.16-.18s.11-.12.17-.18c.17-.18.34-.36.51-.53l.01-.01c.12-.12.23-.23.36-.35l.09-.09.09-.09c.17-.16.35-.31.52-.47.18-.15.35-.3.53-.44.22-.18.45-.35.68-.52l.23-.17c.14-.1.28-.2.42-.29.14-.1.28-.19.42-.28s.29-.18.43-.26c.14-.09.29-.17.44-.25.06-.04.13-.07.19-.11l.39-.21c.07-.03.13-.07.2-.1s.13-.07.2-.1.13-.06.2-.1c.17-.08.33-.15.5-.23l.51-.21c.13-.06.27-.11.41-.16s.27-.1.41-.15c.07-.02.14-.05.21-.07s.14-.05.21-.07.14-.05.21-.07c.12-.04.24-.08.37-.11.02 0 .03-.01.05-.01l.21-.06c.14-.04.28-.08.41-.11.21-.05.43-.11.64-.15.14-.03.28-.06.43-.09.07-.01.14-.03.21-.04s.14-.03.21-.04.14-.02.21-.04l.21-.03c.28-.04.55-.08.83-.11.08-.01.15-.02.23-.02.85-.08 1.7-.11 2.55-.07.08 0 .15 0 .23.01.3.01.6.03.9.07.05 0 .11.01.16.02l.26.03c.06.01.11.01.17.02.16.02.32.04.48.07l.21.03c.14.02.28.05.43.08.07.01.14.03.21.04l.42.09c.28.06.55.13.83.2l.23.06c.13.04.26.08.39.11q.54.165 1.08.36c.13.05.26.1.38.15.2.08.4.16.61.25.07.03.13.06.2.09s.13.06.2.09c.13.06.26.12.4.19.07.03.13.06.2.1.07.03.13.07.2.1s.13.07.19.1.13.07.19.11q.87.48 1.71 1.05c.06.04.11.08.17.12l.2.14.36.27c.06.04.12.09.18.14.06.04.11.09.16.13.06.05.13.1.19.15l.17.14c.06.05.12.1.17.15l.21.18c.07.06.14.12.21.19.06.05.12.11.17.16.04.03.07.07.11.11.06.06.12.11.18.17l.36.36c.06.06.12.13.19.19.05.05.1.1.15.16l.11.12c3.15 3.36 7.51 4.89 11.78 4.55 3.13-.25 6.2-1.52 8.68-3.81 1.02-.94 1.87-1.99 2.56-3.12.24.58.47 1.16.68 1.75.17.48.34.95.49 1.44.14.45.28.9.4 1.35.13.47.25.94.37 1.41.08.31.15.63.22.95.03.16.07.32.1.48.01.06.03.13.04.2.02.08.03.16.05.25.01.02.01.04.01.07.03.15.06.29.08.44.03.16.06.32.08.48l.15.96.06.4c0 .04.01.09.02.13.02.14.03.27.05.41v.04c.02.15.03.3.05.45l.09.97.03.46v.04c.01.1.01.2.02.31.01.15.02.29.02.44v.08c0 .11.01.21.01.31s.01.2.01.31c.01.33.02.66.02.99v.93c.01.31 0 .65-.02.99" style="fill:currentColor"/></svg>